<?xml version="1.0" encoding="UTF-8" standalone="no"?>
<svg
   height="630"
   width="630"
   xml:space="preserve"
   y="0"
   x="0"
   id="Layer_1"
   version="1.1"
   viewBox="-18 -30 81.9 141.75"
   sodipodi:docname="DuckDuckGo-Icon-Logo.wine.svg"
   inkscape:version="1.1.2 (0a00cf5339, 2022-02-04)"
   xmlns:inkscape="http://www.inkscape.org/namespaces/inkscape"
   xmlns:sodipodi="http://sodipodi.sourceforge.net/DTD/sodipodi-0.dtd"
   xmlns="http://www.w3.org/2000/svg"
   xmlns:svg="http://www.w3.org/2000/svg"><defs
     id="defs26" /><sodipodi:namedview
     id="namedview24"
     pagecolor="#505050"
     bordercolor="#eeeeee"
     borderopacity="1"
     inkscape:pageshadow="0"
     inkscape:pageopacity="0"
     inkscape:pagecheckerboard="0"
     showgrid="false"
     fit-margin-top="50"
     lock-margins="true"
     fit-margin-left="50"
     fit-margin-right="50"
     fit-margin-bottom="50"
     inkscape:zoom="1.4676885"
     inkscape:cx="685.09088"
     inkscape:cy="317.84674"
     inkscape:window-width="2560"
     inkscape:window-height="1365"
     inkscape:window-x="0"
     inkscape:window-y="43"
     inkscape:window-maximized="1"
     inkscape:current-layer="Layer_1" /><style
     id="style2"
     type="text/css">.st3{fill:#2d4f8d}.st4{fill:#d5d7d8}.st7{fill:#4c4c4c}</style><g
     id="g975"><circle
       id="circle4"
       r="60"
       cy="40.960285"
       cx="23.601944"
       fill="#de5833" /><path
       id="path6"
       d="m 74.401944,19.460286 c -2.8,-6.6 -6.8,-12.5 -11.8,-17.5 -5.1,-5.1 -11,-9 -17.5,-11.8 -6.8,-2.9 -14,-4.3 -21.5,-4.3 -7.5,0 -14.7,1.5 -21.5,4.3 -6.6,2.8 -12.5,6.8 -17.5,11.8 -5.1,5.1 -9,11 -11.8,17.5 -2.9,6.8 -4.3,14 -4.3,21.5 0,7.4 1.5,14.7 4.3,21.5 2.8,6.6 6.8,12.5 11.8,17.5 5.1,5.1 11,9 17.5,11.8 6.8,2.9 14,4.3 21.5,4.3 7.5,0 14.7,-1.5 21.5,-4.3 6.6,-2.8 12.5,-6.8 17.5,-11.8 5.1,-5.1 9,-11 11.8,-17.5 2.9,-6.8 4.3,-14 4.3,-21.5 0,-7.5 -1.4,-14.7 -4.3,-21.5 z m -38.8,71 c -3.2,-5.4 -11.6,-20.5 -11.6,-31.7 0,-25.8 17.3,-3.7 17.3,-24.3 0,-4.9 -2.4,-22.1 -17.4,-25.7 -3.7,-4.9 -12.4,-9.6 -26.2,-7.7 0,0 2.3,0.7 4.9,2 0,0 -5,0.7 -5.2,4.1 0,0 9.9,-0.5 15.5,1.3 -12.9,1.7 -19.6,8.4 -18.4,20.8 1.7,17.5 9.1,48.7 11.7,59.6 -19.6,-7.1 -33.7,-25.9 -33.7,-48 0,-28.1 22.8,-51 51,-51 28.2,0 51,22.8 51,51 0,24.1 -16.6,44.2 -38.9,49.6 z"
       fill="#ffffff" /><path
       d="m 20.801944,49.260286 c 0,-6.6 9,-8.7 12.4,-8.7 9.2,0 22.2,-5.9 25.4,-5.8 3.3,0.1 5.4,1.4 5.4,2.9 0,2.2 -18.4,10.5 -25.5,9.8 -6.8,-0.6 -8.4,0.1 -8.4,2.9 0,2.4 4.9,4.6 10.3,4.6 8.1,0 16,-3.6 18.4,-1.9 2.1,1.5 -5.5,6.9 -14.2,6.9 -8.7,0 -23.8,-4.1 -23.8,-10.7 z"
       id="Beak_2_"
       fill-rule="evenodd"
       clip-rule="evenodd"
       fill="#fed30a" /><g
       id="g17"
       transform="translate(-39.698056,-22.339714)"><path
         id="path9"
         d="m 76.5,43.6 c -2.4,-3.1 -6.7,-3.2 -8.2,0.4 2.3,-1.8 5.1,-2.2 8.2,-0.4 z"
         class="st3" /><path
         id="path11"
         d="m 49.7,43.7 c -3.3,-2 -8.8,-2.2 -8.5,4.1 1.7,-3.9 3.9,-4.6 8.5,-4.1 z"
         class="st3" /><path
         id="path13"
         d="m 74.5,49.5 c -1.8,0 -3.3,1.5 -3.3,3.3 0,1.8 1.5,3.3 3.3,3.3 1.8,0 3.3,-1.5 3.3,-3.3 0,-1.8 -1.5,-3.3 -3.3,-3.3 z m 1.2,3 c -0.5,0 -1,-0.4 -1,-1 0,-0.5 0.4,-1 1,-1 0.6,0 1,0.4 1,1 -0.1,0.6 -0.5,1 -1,1 z"
         class="st3" /><path
         id="path15"
         d="m 48.9,51.3 c -2.1,0 -3.8,1.7 -3.8,3.8 0,2.1 1.7,3.8 3.8,3.8 2.1,0 3.8,-1.7 3.8,-3.8 0,-2.1 -1.7,-3.8 -3.8,-3.8 z m 1.4,3.5 c -0.6,0 -1.1,-0.5 -1.1,-1.1 0,-0.6 0.5,-1.1 1.1,-1.1 0.6,0 1.1,0.5 1.1,1.1 0,0.6 -0.5,1.1 -1.1,1.1 z"
         class="st3" /></g><g
       id="g25"
       transform="translate(-39.698056,-22.339714)"><path
         id="path19"
         d="m 40.6,35.1 c -4.8,3.5 -7,8.9 -6.3,16.5 1.7,17.5 9.1,48.8 11.7,59.7 l 2.7,0.9 C 47.1,105.6 39.4,73.4 36,48.7 35.1,42.1 37.6,38.2 40.6,35.1 Z"
         class="st4" /><path
         id="path21"
         d="m 52.5,30.8 c 0.4,0 0.7,-0.1 0.7,-0.1 -5.2,-2.5 -13.4,-2.6 -15.6,-2.6 -0.2,0.4 -0.4,0.9 -0.4,1.4 -0.1,0.1 9.6,-0.5 15.3,1.3 z"
         class="st4" /><path
         id="path23"
         d="m 43.1,25.4 c -1.6,-1.1 -2.9,-1.8 -3.7,-2.2 -0.7,0.1 -1.3,0.1 -2,0.2 0,0 2.3,0.7 4.9,2 h -0.2 z"
         class="st4" /></g><g
       id="g31"
       transform="translate(-39.698056,-22.339714)"><path
         id="path27"
         d="m 83.4,91.9 c -1.7,-0.4 -8.3,4.3 -10.8,6.1 -0.1,-0.5 -0.2,-0.9 -0.3,-1.1 -0.3,-1 -6.7,-0.4 -8.2,1.2 -4,-1.9 -12,-5.6 -12.1,-3.3 -0.3,3 0,15.5 1.6,16.4 1.2,0.7 8,-3 11.4,-4.9 h 0.1 c 2.1,0.5 6,0 7.4,-0.9 0.2,-0.1 0.3,-0.3 0.4,-0.5 3.1,1.2 9.8,3.6 11.2,3.1 1.8,-0.5 1.4,-15.6 -0.7,-16.1 z"
         fill="#67bd47" /><path
         id="path29"
         d="m 65.1,106.3 c -2.1,-0.4 -1.4,-2.5 -1.4,-7.4 -0.5,0.3 -0.9,0.7 -0.9,1.1 0,4.9 -0.8,7.1 1.4,7.4 2.1,0.5 6,0 7.6,-0.9 0.3,-0.2 0.4,-0.5 0.5,-1 -1.5,0.9 -5.2,1.3 -7.2,0.8 z"
         fill="#43a347" /></g></g></svg>
