<?xml version="1.0" encoding="UTF-8" standalone="no"?>
<!-- Uploaded to: SVG Repo, www.svgrepo.com, Generator: SVG Repo Mixer Tools -->

<svg
   version="1.1"
   id="Layer_1"
   viewBox="0 0 508 508"
   xml:space="preserve"
   sodipodi:docname="py_code.svg"
   inkscape:version="1.1.2 (0a00cf5339, 2022-02-04)"
   xmlns:inkscape="http://www.inkscape.org/namespaces/inkscape"
   xmlns:sodipodi="http://sodipodi.sourceforge.net/DTD/sodipodi-0.dtd"
   xmlns="http://www.w3.org/2000/svg"
   xmlns:svg="http://www.w3.org/2000/svg"><defs
   id="defs43" /><sodipodi:namedview
   id="namedview41"
   pagecolor="#505050"
   bordercolor="#eeeeee"
   borderopacity="1"
   inkscape:pageshadow="0"
   inkscape:pageopacity="0"
   inkscape:pagecheckerboard="0"
   showgrid="false"
   inkscape:zoom="2.0016132"
   inkscape:cx="259.04106"
   inkscape:cy="244.55274"
   inkscape:window-width="2560"
   inkscape:window-height="1365"
   inkscape:window-x="2560"
   inkscape:window-y="43"
   inkscape:window-maximized="1"
   inkscape:current-layer="Layer_1"
   showguides="true"
   inkscape:guide-bbox="true"><sodipodi:guide
     position="72.628914,503.87832"
     orientation="0,-1"
     id="guide980" /><sodipodi:guide
     position="22.815596,530.20975"
     orientation="1,0"
     id="guide982" /><sodipodi:guide
     position="418.78719,497.41479"
     orientation="1,0"
     id="guide1064" /><sodipodi:guide
     position="5.3554688,503.74219"
     orientation="1,0"
     id="guide1676" /></sodipodi:namedview>

<rect
   style="fill:#ffffff;fill-opacity:1;stroke:#000000;stroke-width:0.566929"
   id="rect1063"
   width="388.11102"
   height="499.80331"
   x="56.716583"
   y="4.1216798" />


<path
   d="m 135.86472,219.72912 h 274.22244 c 3.10441,0 5.17401,-1.6 5.17401,-4 0,-2.4 -2.0696,-4 -5.17401,-4 H 135.86472 c -3.10441,0 -5.17401,1.6 -5.17401,4 0,2.4 2.0696,4 5.17401,4 z"
   id="path10"
   style="stroke-width:1.13732" />
<path
   d="m 135.86472,259.72912 h 274.22244 c 3.10441,0 5.17401,-1.6 5.17401,-4 0,-2.4 -2.0696,-4 -5.17401,-4 H 135.86472 c -3.10441,0 -5.17401,1.6 -5.17401,4 0,2.4 2.0696,4 5.17401,4 z"
   id="path12"
   style="stroke-width:1.13732" />
<path
   d="m 135.86472,299.72912 h 274.22244 c 3.10441,0 5.17401,-1.6 5.17401,-4 0,-2.4 -2.0696,-4 -5.17401,-4 H 135.86472 c -3.10441,0 -5.17401,1.6 -5.17401,4 0,2.4 2.0696,4 5.17401,4 z"
   id="path14"
   style="stroke-width:1.13732" />
<path
   d="m 135.86472,339.72912 h 274.22244 c 3.10441,0 5.17401,-1.6 5.17401,-4 0,-2.4 -2.0696,-4 -5.17401,-4 H 135.86472 c -3.10441,0 -5.17401,1.6 -5.17401,4 0,2.4 2.0696,4 5.17401,4 z"
   id="path16"
   style="stroke-width:1.13732" />




<path
   d="m 92.16216,219.72912 h 21.79457 c 0.81729,0 1.36216,-1.6 1.36216,-4 0,-2.4 -0.54487,-4 -1.36216,-4 H 92.16216 c -0.817296,0 -1.36216,1.6 -1.36216,4 0,2.4 0.544864,4 1.36216,4 z"
   id="path26"
   style="stroke-width:0.583558" />
<path
   d="m 92.16216,259.72912 h 21.79457 c 0.81729,0 1.36216,-1.6 1.36216,-4 0,-2.4 -0.54487,-4 -1.36216,-4 H 92.16216 c -0.817296,0 -1.36216,1.6 -1.36216,4 0,2.4 0.544864,4 1.36216,4 z"
   id="path28"
   style="stroke-width:0.583558" />
<path
   d="m 92.16216,299.72912 h 21.79457 c 0.81729,0 1.36216,-1.6 1.36216,-4 0,-2.4 -0.54487,-4 -1.36216,-4 H 92.16216 c -0.817296,0 -1.36216,1.6 -1.36216,4 0,2.4 0.544864,4 1.36216,4 z"
   id="path30"
   style="stroke-width:0.583558" />
<path
   d="m 92.16216,339.72912 h 21.79457 c 0.81729,0 1.36216,-1.6 1.36216,-4 0,-2.4 -0.54487,-4 -1.36216,-4 H 92.16216 c -0.817296,0 -1.36216,1.6 -1.36216,4 0,2.4 0.544864,4 1.36216,4 z"
   id="path32"
   style="stroke-width:0.583558" />



<g
   id="g879"
   transform="translate(30)"><path
     d="M 411.60032,8.0137366 H 29.92364 c -4.320867,0 -7.201447,-1.6000019 -7.201447,-4.0000019 0,-2.4 2.88058,-4.00000004 7.201447,-4.00000004 h 381.67668 c 4.32087,0 7.20144,1.60000004 7.20144,4.00000004 0,2.4 -2.88057,4.0000019 -7.20144,4.0000019 z"
     id="path978"
     style="stroke-width:1.34177" /><path
     d="M 411.60032,507.89318 H 29.92364 c -4.320867,0 -7.201447,-1.6 -7.201447,-4 0,-2.4 2.88058,-4 7.201447,-4 h 381.67668 c 4.32087,0 7.20144,1.6 7.20144,4 0,2.4 -2.88057,4 -7.20144,4 z"
     id="path1557"
     style="stroke-width:1.34177" /><path
     style="fill:#000000;stroke:#000000;stroke-width:8;stroke-miterlimit:4;stroke-dasharray:none"
     d="m 414.82761,4.12168 v 499.8033"
     id="path1594"
     sodipodi:nodetypes="cc" /><path
     style="fill:#000000;stroke:#000000;stroke-width:8;stroke-miterlimit:4;stroke-dasharray:none"
     d="m 26.716585,4.12168 v 499.8033"
     id="path844"
     sodipodi:nodetypes="cc" /></g><path
   d="m 120.93958,219.72912 h 2.2332 c 0.0837,0 0.13958,-1.6 0.13958,-4 0,-2.4 -0.0558,-4 -0.13958,-4 h -2.2332 c -0.0838,0 -0.13958,1.6 -0.13958,4 0,2.4 0.0558,4 0.13958,4 z"
   id="path1986"
   style="stroke-width:0.186799" /><path
   d="m 120.93958,259.72912 h 2.2332 c 0.0837,0 0.13958,-1.6 0.13958,-4 0,-2.4 -0.0558,-4 -0.13958,-4 h -2.2332 c -0.0838,0 -0.13958,1.6 -0.13958,4 0,2.4 0.0558,4 0.13958,4 z"
   id="path1988"
   style="stroke-width:0.186799" /><path
   d="m 120.93958,299.72912 h 2.2332 c 0.0837,0 0.13958,-1.6 0.13958,-4 0,-2.4 -0.0558,-4 -0.13958,-4 h -2.2332 c -0.0838,0 -0.13958,1.6 -0.13958,4 0,2.4 0.0558,4 0.13958,4 z"
   id="path1990"
   style="stroke-width:0.186799" /><path
   d="m 120.93958,339.72912 h 2.2332 c 0.0837,0 0.13958,-1.6 0.13958,-4 0,-2.4 -0.0558,-4 -0.13958,-4 h -2.2332 c -0.0838,0 -0.13958,1.6 -0.13958,4 0,2.4 0.0558,4 0.13958,4 z"
   id="path1992"
   style="stroke-width:0.186799" /><path
   d="m 135.86472,62.966106 h 274.22244 c 3.10441,0 5.17401,-1.6 5.17401,-4 0,-2.4 -2.0696,-4 -5.17401,-4 H 135.86472 c -3.10441,0 -5.17401,1.6 -5.17401,4 0,2.4 2.0696,4 5.17401,4 z"
   id="path2074"
   style="stroke-width:1.13732" /><path
   d="m 135.86472,102.96611 h 274.22244 c 3.10441,0 5.17401,-1.6 5.17401,-4.000004 0,-2.4 -2.0696,-4 -5.17401,-4 H 135.86472 c -3.10441,0 -5.17401,1.6 -5.17401,4 0,2.400004 2.0696,4.000004 5.17401,4.000004 z"
   id="path2076"
   style="stroke-width:1.13732" /><path
   d="m 135.86472,142.9661 h 274.22244 c 3.10441,0 5.17401,-1.6 5.17401,-4 0,-2.4 -2.0696,-4 -5.17401,-4 H 135.86472 c -3.10441,0 -5.17401,1.6 -5.17401,4 0,2.4 2.0696,4 5.17401,4 z"
   id="path2078"
   style="stroke-width:1.13732" /><path
   d="m 135.86472,182.9661 h 274.22244 c 3.10441,0 5.17401,-1.6 5.17401,-4 0,-2.4 -2.0696,-4 -5.17401,-4 H 135.86472 c -3.10441,0 -5.17401,1.6 -5.17401,4 0,2.4 2.0696,4 5.17401,4 z"
   id="path2080"
   style="stroke-width:1.13732" /><path
   d="m 92.16216,62.966106 h 21.79457 c 0.81729,0 1.36216,-1.6 1.36216,-4 0,-2.4 -0.54487,-4 -1.36216,-4 H 92.16216 c -0.817296,0 -1.36216,1.6 -1.36216,4 0,2.4 0.544864,4 1.36216,4 z"
   id="path2082"
   style="stroke-width:0.583558" /><path
   d="m 92.16216,102.96611 h 21.79457 c 0.81729,0 1.36216,-1.6 1.36216,-4.000004 0,-2.4 -0.54487,-4 -1.36216,-4 H 92.16216 c -0.817296,0 -1.36216,1.6 -1.36216,4 0,2.400004 0.544864,4.000004 1.36216,4.000004 z"
   id="path2084"
   style="stroke-width:0.583558" /><path
   d="m 92.16216,142.9661 h 21.79457 c 0.81729,0 1.36216,-1.6 1.36216,-4 0,-2.4 -0.54487,-4 -1.36216,-4 H 92.16216 c -0.817296,0 -1.36216,1.6 -1.36216,4 0,2.4 0.544864,4 1.36216,4 z"
   id="path2086"
   style="stroke-width:0.583558" /><path
   d="m 92.16216,182.9661 h 21.79457 c 0.81729,0 1.36216,-1.6 1.36216,-4 0,-2.4 -0.54487,-4 -1.36216,-4 H 92.16216 c -0.817296,0 -1.36216,1.6 -1.36216,4 0,2.4 0.544864,4 1.36216,4 z"
   id="path2088"
   style="stroke-width:0.583558" /><path
   d="m 120.93958,62.966106 h 2.2332 c 0.0837,0 0.13958,-1.6 0.13958,-4 0,-2.4 -0.0558,-4 -0.13958,-4 h -2.2332 c -0.0838,0 -0.13958,1.6 -0.13958,4 0,2.4 0.0558,4 0.13958,4 z"
   id="path2090"
   style="stroke-width:0.186799" /><path
   d="m 120.93958,102.96611 h 2.2332 c 0.0837,0 0.13958,-1.6 0.13958,-4.000004 0,-2.4 -0.0558,-4 -0.13958,-4 h -2.2332 c -0.0838,0 -0.13958,1.6 -0.13958,4 0,2.400004 0.0558,4.000004 0.13958,4.000004 z"
   id="path2092"
   style="stroke-width:0.186799" /><path
   d="m 120.93958,142.9661 h 2.2332 c 0.0837,0 0.13958,-1.6 0.13958,-4 0,-2.4 -0.0558,-4 -0.13958,-4 h -2.2332 c -0.0838,0 -0.13958,1.6 -0.13958,4 0,2.4 0.0558,4 0.13958,4 z"
   id="path2094"
   style="stroke-width:0.186799" /><path
   d="m 120.93958,182.9661 h 2.2332 c 0.0837,0 0.13958,-1.6 0.13958,-4 0,-2.4 -0.0558,-4 -0.13958,-4 h -2.2332 c -0.0838,0 -0.13958,1.6 -0.13958,4 0,2.4 0.0558,4 0.13958,4 z"
   id="path2096"
   style="stroke-width:0.186799" /><path
   d="m 135.86472,381.4274 h 274.22244 c 3.10441,0 5.17401,-1.6 5.17401,-4 0,-2.4 -2.0696,-4 -5.17401,-4 H 135.86472 c -3.10441,0 -5.17401,1.6 -5.17401,4 0,2.4 2.0696,4 5.17401,4 z"
   id="path2098"
   style="stroke-width:1.13732" /><path
   d="m 135.86472,421.4274 h 274.22244 c 3.10441,0 5.17401,-1.6 5.17401,-4 0,-2.4 -2.0696,-4 -5.17401,-4 H 135.86472 c -3.10441,0 -5.17401,1.6 -5.17401,4 0,2.4 2.0696,4 5.17401,4 z"
   id="path2100"
   style="stroke-width:1.13732" /><path
   d="m 135.86472,461.4274 h 274.22244 c 3.10441,0 5.17401,-1.6 5.17401,-4 0,-2.4 -2.0696,-4 -5.17401,-4 H 135.86472 c -3.10441,0 -5.17401,1.6 -5.17401,4 0,2.4 2.0696,4 5.17401,4 z"
   id="path2102"
   style="stroke-width:1.13732" /><path
   d="m 92.16216,381.4274 h 21.79457 c 0.81729,0 1.36216,-1.6 1.36216,-4 0,-2.4 -0.54487,-4 -1.36216,-4 H 92.16216 c -0.817296,0 -1.36216,1.6 -1.36216,4 0,2.4 0.544864,4 1.36216,4 z"
   id="path2106"
   style="stroke-width:0.583558" /><path
   d="m 92.16216,421.4274 h 21.79457 c 0.81729,0 1.36216,-1.6 1.36216,-4 0,-2.4 -0.54487,-4 -1.36216,-4 H 92.16216 c -0.817296,0 -1.36216,1.6 -1.36216,4 0,2.4 0.544864,4 1.36216,4 z"
   id="path2108"
   style="stroke-width:0.583558" /><path
   d="m 92.16216,461.4274 h 21.79457 c 0.81729,0 1.36216,-1.6 1.36216,-4 0,-2.4 -0.54487,-4 -1.36216,-4 H 92.16216 c -0.817296,0 -1.36216,1.6 -1.36216,4 0,2.4 0.544864,4 1.36216,4 z"
   id="path2110"
   style="stroke-width:0.583558" /><path
   d="m 120.93958,381.4274 h 2.2332 c 0.0837,0 0.13958,-1.6 0.13958,-4 0,-2.4 -0.0558,-4 -0.13958,-4 h -2.2332 c -0.0838,0 -0.13958,1.6 -0.13958,4 0,2.4 0.0558,4 0.13958,4 z"
   id="path2114"
   style="stroke-width:0.186799" /><path
   d="m 120.93958,421.4274 h 2.2332 c 0.0837,0 0.13958,-1.6 0.13958,-4 0,-2.4 -0.0558,-4 -0.13958,-4 h -2.2332 c -0.0838,0 -0.13958,1.6 -0.13958,4 0,2.4 0.0558,4 0.13958,4 z"
   id="path2116"
   style="stroke-width:0.186799" /><path
   d="m 120.93958,461.4274 h 2.2332 c 0.0837,0 0.13958,-1.6 0.13958,-4 0,-2.4 -0.0558,-4 -0.13958,-4 h -2.2332 c -0.0838,0 -0.13958,1.6 -0.13958,4 0,2.4 0.0558,4 0.13958,4 z"
   id="path2118"
   style="stroke-width:0.186799" /><text
   xml:space="preserve"
   style="font-size:270.153px;line-height:1.25;font-family:sans-serif;fill:#4e4e4e;fill-opacity:1;stroke-width:2.25127"
   x="123.65842"
   y="177.65869"
   id="text7264"
   transform="scale(0.95688278,1.0450601)"><tspan
     sodipodi:role="line"
     id="tspan7262"
     x="123.65842"
     y="177.65869"
     style="font-style:normal;font-variant:normal;font-weight:600;font-stretch:normal;font-family:'Source Code Pro for Powerline';-inkscape-font-specification:'Source Code Pro for Powerline Semi-Bold';fill:#4e4e4e;fill-opacity:1;stroke-width:2.25127">py</tspan></text></svg>
